<svg xmlns="http://www.w3.org/2000/svg" xmlns:xlink="http://www.w3.org/1999/xlink" viewBox="0 0 46.75 28.33"><defs><pattern id="New_Pattern_Swatch_3" data-name="New Pattern Swatch 3" width="140" height="140" patternTransform="translate(37 1)" patternUnits="userSpaceOnUse" viewBox="0 0 140 140"><rect width="140" height="140" fill="none"/><rect width="140" height="140" fill="#005688"/></pattern></defs><title>Asset 2</title><g id="Layer_2" data-name="Layer 2"><g id="Layer_9" data-name="Layer 9"><path d="M36.83,28.33a9.92,9.92,0,1,0,0-19.83,8.9,8.9,0,0,0-6.92,2.91,14.12,14.12,0,0,1-.16-2.2c.09-5,4.84-7.88,9.92-7.79L38.25,0c-8.53,0-14,6.3-14.17,14.17s4.75,14,12.75,14.16Zm-24.08,0a9.92,9.92,0,1,0,0-19.83,8.9,8.9,0,0,0-6.92,2.91,14.12,14.12,0,0,1-.16-2.2c.09-5,4.84-7.88,9.92-7.79L14.17,0C5.64,0,.14,6.3,0,14.17s4.75,14,12.75,14.16Z" fill-rule="evenodd" fill="url(#New_Pattern_Swatch_3)"/></g></g></svg>