<svg width="33" height="33" viewBox="0 0 33 33" xmlns="http://www.w3.org/2000/svg"><title>Fill 1</title><g fill="#FFF" fill-rule="evenodd"><path d="M0 16.502C0 25.605 7.398 33 16.502 33 25.605 33 33 25.605 33 16.502 33 7.398 25.607 0 16.502 0 7.398 0 0 7.398 0 16.502zm1.5 0C1.5 8.207 8.208 1.5 16.502 1.5 24.794 1.5 31.5 8.208 31.5 16.502c0 8.293-6.705 14.998-14.998 14.998C8.207 31.5 1.5 24.795 1.5 16.502z"/><path d="M6.104 13.05c.009.22.114.427.288.561l9.375 7.5a.75.75 0 0 0 .938 0l9.375-7.5a.748.748 0 0 0-.384-1.336.75.75 0 0 0-.554.166l-8.906 7.125-8.906-7.125a.75.75 0 0 0-1.226.61z"/></g></svg>
